Coordinates
version=1
nRows=10
nColumns=40
inDegrees=yes

Units are S.I. units (second, meters, Newtons, ...)
Angles are in degrees.

endheader
time	pelvis_tilt	pelvis_list	pelvis_rotation	pelvis_tx	pelvis_ty	pelvis_tz	hip_flexion_r	hip_adduction_r	hip_rotation_r	knee_angle_r	knee_angle_r_beta	ankle_angle_r	subtalar_angle_r	mtp_angle_r	hip_flexion_l	hip_adduction_l	hip_rotation_l	knee_angle_l	knee_angle_l_beta	ankle_angle_l	subtalar_angle_l	mtp_angle_l	lumbar_extension	lumbar_bending	lumbar_rotation	arm_flex_r	arm_add_r	arm_rot_r	elbow_flex_r	pro_sup_r	wrist_flex_r	wrist_dev_r	arm_flex_l	arm_add_l	arm_rot_l	elbow_flex_l	pro_sup_l	wrist_flex_l	wrist_dev_l
      1.92000000	      1.14128846	     -2.00658042	     -5.48544480	      0.59729137	      0.87747829	     -1.17132486	    -12.37194856	      1.42054095	    -12.03401994	    -21.96457523	     -0.38335416	     10.27599027	      8.36449566	     -8.11096370	     21.87726016	      4.51840406	     16.67145051	    -12.73831820	     -0.22232559	     -3.98928537	     -3.53396633	     -8.38381493	     -8.45085796	      2.00720525	      7.95169172	     18.99481248	    -13.06882213	     13.61910830	     27.96510109	     89.95437384	      0.00000000	      0.00000000	     -7.41745612	      7.19240920	    -17.31268566	     14.61396095	     89.95437384	      0.00000000	      0.00000000
      1.93000000	      1.08111293	     -1.52263820	     -5.71026195	      0.60880096	      0.87699631	     -1.17209737	    -12.51932890	      0.63230982	    -11.53797749	    -22.81062189	     -0.39812046	      9.46545144	      7.86287084	     -7.94411323	     21.61139230	      3.89894887	     16.05141163	    -13.31199766	     -0.23233819	     -7.03705583	     -3.57711878	     -8.14609696	     -8.20919917	      1.45598432	      8.03870605	     18.64658533	    -12.94427264	     13.48382754	     27.93793211	     89.95437384	      0.00000000	      0.00000000	     -7.62849781	      7.16888621	    -17.43644996	     14.45715449	     89.95437384	      0.00000000	      0.00000000
      1.94000000	      1.03017892	     -0.96647846	     -5.75144833	      0.62030218	      0.87687980	     -1.17302710	    -12.62141826	     -0.16810996	    -11.16875501	    -23.69949221	     -0.41363417	      8.62521892	      7.37060201	     -7.74382522	     21.37994173	      3.10348930	     14.78195838	    -13.88741251	     -0.24238107	     -8.62146729	     -3.89373077	     -8.06559369	     -7.97980279	      0.82369049	      7.88432277	     18.34955975	    -12.69572966	     13.32846501	     27.70957854	     89.95437384	      0.00000000	      0.00000000	     -7.70109707	      7.13481628	    -17.56407517	     14.08111224	     89.95437384	      0.00000000	      0.00000000
      1.95000000	      0.98496526	     -0.43556063	     -5.69877557	      0.63186411	      0.87706710	     -1.17392607	    -12.69349657	     -0.85098149	    -10.61515794	    -24.63862776	     -0.43002518	      7.69687744	      6.92010445	     -7.47086564	     21.29821624	      2.44405976	     14.22904593	    -14.77896602	     -0.25794162	     -8.56483200	     -3.70204185	     -7.94555501	     -7.79013564	      0.20805318	      7.63243176	     17.94417273	    -12.47626001	     13.26304459	     27.61502425	     89.95437384	      0.00000000	      0.00000000	     -7.84384493	      7.15492753	    -17.76496772	     13.93139117	     89.95437384	      0.00000000	      0.00000000
      1.96000000	      1.27262141	      0.70808622	     -5.60958616	      0.64406275	      0.87820268	     -1.17546169	    -12.93954430	     -2.48944020	    -11.15024787	    -25.86179526	     -0.45137348	      6.14171131	      6.50844363	     -6.97937648	     20.32513542	      0.66441496	     12.75011212	    -14.81532759	     -0.25857625	     -6.87818102	      1.17213568	     -8.09075478	     -7.79572972	     -1.05902733	      7.42814262	     17.49669073	    -12.04814143	     12.47227101	     27.06269863	     89.95437384	      0.00000000	      0.00000000	     -7.78450502	      7.45945666	    -20.10318454	     13.69401682	     89.95437384	      0.00000000	      0.00000000
      1.97000000	      1.29577792	      1.32418703	     -5.52136421	      0.65602597	      0.87919931	     -1.17649785	    -12.82724329	     -3.33945729	    -10.96456721	    -27.17258847	     -0.47425114	      4.45625781	      5.78273365	     -6.56126558	     20.04789685	     -0.10799768	     12.61314338	    -15.82366771	     -0.27617510	     -5.81098451	      1.42530282	     -8.00716138	     -7.59383415	     -1.74568680	      7.16020852	     17.06977708	    -11.74520024	     12.43255596	     26.52445466	     89.95437384	      0.00000000	      0.00000000	     -7.71664327	      7.44909611	    -20.39209546	     13.29190213	     89.95437384	      0.00000000	      0.00000000
      1.98000000	      1.21885420	      1.95843511	     -5.35915663	      0.66785755	      0.88041764	     -1.17769308	    -12.35002147	     -4.21841241	    -10.95557118	    -28.83910692	     -0.50333737	      2.31840971	      4.81288185	     -6.00962872	     19.65807569	     -1.04850707	     11.93197116	    -16.40337757	     -0.28629295	     -4.96290553	      1.41062092	     -7.86067312	     -7.31021266	     -2.42435929	      6.80928846	     16.59758736	    -11.40901393	     12.24688371	     25.99343813	     89.95437384	      0.00000000	      0.00000000	     -7.59789860	      7.50570201	    -20.66855744	     13.05164198	     89.95437384	      0.00000000	      0.00000000
      1.99000000	      1.15765386	      2.52098938	     -5.21566404	      0.67967274	      0.88187479	     -1.17882388	    -11.67428661	     -5.05151930	    -10.97953033	    -30.76295083	     -0.53691478	     -0.18160429	      3.75804950	     -5.38894470	     19.16872567	     -1.85337261	     11.56466528	    -16.88159978	     -0.29463950	     -4.03298333	      1.58589574	     -7.65190476	     -7.03391975	     -3.01821197	      6.51176705	     16.13415056	    -11.06604100	     12.10729394	     25.28979303	     89.95437384	      0.00000000	      0.00000000	     -7.40828850	      7.52956819	    -21.00391627	     12.76796084	     89.95437384	      0.00000000	      0.00000000
      2.00000000	      0.89230010	      3.23847310	     -4.98129842	      0.69128669	      0.88319666	     -1.18053152	    -10.51675539	     -6.00083605	    -10.88774080	    -32.99688609	     -0.57590431	     -3.09196159	      1.69173702	     -4.01934790	     18.62743303	     -3.02202215	     10.70067269	    -16.73259659	     -0.29203890	     -3.18155879	      3.35410137	     -6.70466778	     -6.51112894	     -3.71650159	      6.09663370	     15.58621079	    -10.71584217	     11.80383030	     24.64258927	     89.95437384	      0.00000000	      0.00000000	     -7.25700716	      7.65346150	    -22.15449742	     12.67074161	     89.95437384	      0.00000000	      0.00000000
      2.01000000	      0.85082980	      3.44541952	     -4.92175688	      0.70275718	      0.88493197	     -1.18154086	     -9.47529993	     -6.49113052	    -10.70239484	    -35.25066116	     -0.61524010	     -6.38198926	      1.05294335	     -3.36828134	     17.83881030	     -3.41719330	     10.53663104	    -16.75737861	     -0.29247143	     -2.20205002	      2.97942582	     -6.58857093	     -6.28326641	     -3.89951705	      5.85542452	     15.26176174	    -10.42386030	     12.01183993	     23.64954537	     89.95437384	      0.00000000	      0.00000000	     -6.93492105	      7.60770724	    -22.39491918	     12.42471404	     89.95437384	      0.00000000	      0.00000000
